<svg xmlns="http://www.w3.org/2000/svg" viewBox="0 0 217 217">
    <path class="cls-1"
          d="M164.76,120.61a115.55,115.55,0,0,1-14.55-7.46q5.17,14.78,2.07,36.79-1.48,9.31-3.4,16.69A76.19,76.19,0,0,1,144,180.22q-4.14,7.68-9.31,11.52l13.15,2.66q3.84,0.44,7.53.74t7.54,0.3a101.62,101.62,0,0,1-23.57,10.34,92,92,0,0,1-26.22,3.69A94.23,94.23,0,0,1,87.49,206a96.15,96.15,0,0,1-23-9.75A99.22,99.22,0,0,1,45,181.18a93,93,0,0,1-15.07-19.5,99.83,99.83,0,0,1-9.68-23,95.82,95.82,0,0,1,0-51.12,99.91,99.91,0,0,1,9.68-23A94.8,94.8,0,0,1,45,45a97.88,97.88,0,0,1,19.5-15.14,96.35,96.35,0,0,1,23-9.75,96.36,96.36,0,0,1,51.27,0,96.39,96.39,0,0,1,23,9.75A97.87,97.87,0,0,1,181.23,45,94.79,94.79,0,0,1,196.3,64.61a100,100,0,0,1,9.68,23,93.44,93.44,0,0,1,3.47,25.56q0,3.4-.3,6.87t-0.59,6.72a59.82,59.82,0,0,1-14.33,1.18A66.83,66.83,0,0,1,180.79,126,113,113,0,0,1,164.76,120.61ZM84.46,8.84A106.41,106.41,0,0,0,58.75,19.77,111.21,111.21,0,0,0,19.89,58.63a107.18,107.18,0,0,0,0,108.89,108.51,108.51,0,0,0,17,21.79,111.82,111.82,0,0,0,21.87,16.92,107.16,107.16,0,0,0,108.74,0,111.89,111.89,0,0,0,21.87-16.92,108.61,108.61,0,0,0,17-21.79,107.35,107.35,0,0,0,0-108.89,111.21,111.21,0,0,0-38.86-38.86A107.9,107.9,0,0,0,84.46,8.84Zm51.27,146a44.34,44.34,0,0,0,2.22-8.35l-1,1.18-3.25,2.36q-0.74.59-1.92-2.36-1.18-2.8-.15-3.25l0.15-.15v-0.15a31,31,0,0,0,11.52-15.51,39.17,39.17,0,0,0,1.85-9.9,22.18,22.18,0,0,0-1.7-9.46,32.45,32.45,0,0,0-3.62-6.43,61.68,61.68,0,0,0-6-7.17L122,84.34q-7.54-8.86-7.54-16a18.86,18.86,0,0,1,1.11-6.06q1.11-3.25,2.73-7.09l5.32-12,1.18-6.21a4.38,4.38,0,0,0-1.26-2.51,10.91,10.91,0,0,0-3-1.77,36.6,36.6,0,0,0-9.23-2.29,17,17,0,0,0-7.61,1,34.51,34.51,0,0,0-7.68,5,24.57,24.57,0,0,0-5.76,7.68A30.38,30.38,0,0,0,87,53.09a21,21,0,0,0,.37,9.09,45.11,45.11,0,0,0,2.07,6.5l4.14,10.93q1.48,5.17-.3,8.13l2.22,0.44Q118.88,95.42,123,110a29,29,0,0,1,.59,6.8,23.57,23.57,0,0,1-.89,5.47,9.82,9.82,0,0,1-5.61,5.76,18.65,18.65,0,0,1,2.88,4.06q1.11,2.14,2.14,4.65a22.62,22.62,0,0,1,.44,11.67q-1.48,5.62-6.35,6.8l0.59,1.18a14.75,14.75,0,0,1,2.07,10.93,15.2,15.2,0,0,1-2.59,4.8,8.23,8.23,0,0,1-4.36,2.59,26.32,26.32,0,0,1-18.62,0,46.15,46.15,0,0,1-8.42-3.25,37,37,0,0,1-8-5.47,8.62,8.62,0,0,1-1-3.84,2.56,2.56,0,0,1,0-1.77q0.29-.44.59,0a49.47,49.47,0,0,0,14.33,8.27q8.72,3.1,16.25.89a26.25,26.25,0,0,0,5.69-2.07,11.56,11.56,0,0,0,3-2.36q1.92-4.13-1.92-8a14,14,0,0,0-2.88-2.66,14.67,14.67,0,0,0-4.21-2.07A78.38,78.38,0,0,0,90,147a57.91,57.91,0,0,0-16.47-.89q-8.57.44-12.85,5.17-5,5.47,0,13.3a31.56,31.56,0,0,0,9.46,9.31,40,40,0,0,0,14.48,5.47q16.1,3.55,28.81-1.48a39,39,0,0,0,18.32-15.22A40.06,40.06,0,0,0,135.73,154.89ZM61.85,142.55a15.31,15.31,0,0,1,3-1.4,21,21,0,0,1,3.62-.81l16.84,0.74Q91.4,142,95.91,143a51.89,51.89,0,0,1,7.46,2.22A37.67,37.67,0,0,1,108,147.5a39.71,39.71,0,0,1,4.06,2.73c0-.49.15-0.74,0.44-0.74q5.91,0,7.54-5.32a11.64,11.64,0,0,0-1.48-9.75L113.12,129l-0.44-.3a40.91,40.91,0,0,0-9.46-4.95,98.21,98.21,0,0,0-12.41-3.62L74.26,118q-10.64,0-15.66,4.88-4.43,4.43-3.55,9.6,0.89,4.73,6.35,9.31Zm41.37-24.08a48.8,48.8,0,0,1,8.72,4.73l0.15-.15q6.21-.74,8.13-6.06,2.51-4.88-.89-9.9a33.74,33.74,0,0,0-10.93-8.72,61.54,61.54,0,0,0-16.84-5.47L87,92.17H86.08l-0.74-.3L74.86,91q-10.34-.15-15.51,4.58-7.39,7.53.44,19.65,10.19-6.79,32.65,0A55.64,55.64,0,0,1,103.22,118.47Zm42.7-8.27a64.83,64.83,0,0,1,1.26,7.83,36.5,36.5,0,0,1-.22,8.27A34.77,34.77,0,0,1,141,142.7l0.15,0.59q-0.3,19.65-13.15,31.76a60.4,60.4,0,0,1-7.09,5.32,43,43,0,0,1-8,4l12.11,4.43q8.42-.89,14.92-11.52,5.91-9.6,8.57-24.53,1.18-6.2,1.92-11.45a69.85,69.85,0,0,0,.74-9.68q0.15-12.56-4.14-20.09Z"
          transform="translate(-4.62 -4.5)"/>
</svg>