<svg xmlns="http://www.w3.org/2000/svg" viewBox="0 0 216 187.59">
    <path class="cls-1"
          d="M112.62,155a15.85,15.85,0,0,0-3.35,4.43q-1.2,2.4-2.15,4.55,0,1.68-.18,3.77A21.57,21.57,0,0,0,107,172v0.24a7.43,7.43,0,0,0,.48,2.69q0.36,0.66,2.75-.06a8.35,8.35,0,0,0,3-1.68l2.15-2.39,1.68-2.69,1.8-2.45,0.18-1,0.54-.18,0.12,0.78-0.36,1.26a14.85,14.85,0,0,1-4.91,9.7A16.84,16.84,0,0,1,110.7,179a11,11,0,0,1-3.59,1.38q-7.66.48-9-7.06a16.55,16.55,0,0,1,.72-8,25.56,25.56,0,0,1,4.07-7.06,26.89,26.89,0,0,1,2.39-2.93l1.8-2.21a10.13,10.13,0,0,1,4.13-1.56,11.89,11.89,0,0,1,4.73.24,4.47,4.47,0,0,1,2.33,1.32l0.66,2.27a27.37,27.37,0,0,1-.18,3.35l-1.5,2.39-2,.54-1.8-.66-0.72-1.86,0.48-2,1.38-1.44,1.62-1.2A3.3,3.3,0,0,0,112.62,155Zm-38.31,6.4-0.72,1.26-1.14.9-1.38.66q-2.51,1-1.8,2.63l0.66,1.08,0.9,1q4.07,4.07.48,8l-1,2.63a3,3,0,0,0,1.86,2.15l0.42,0.12L73,181.95l1.8,1,1.38,1.74,0.6,2.21-0.66,2.39L76,191.46l1.44,1.5,1.26,0.3,1.38,0.06q3.11-.12,4.49,1.32a7.07,7.07,0,0,1,1.62,4.43,3.14,3.14,0,0,0,1.8,2.69,3.46,3.46,0,0,0,3.35.06,7.42,7.42,0,0,1,3.35-.84l2.63,0.9a7.31,7.31,0,0,1,2.15,2.93,3.49,3.49,0,0,0,2.81,1.92,3.18,3.18,0,0,0,3.29-1.2l1-1.08,0.54-.72a4.16,4.16,0,0,1,3.23-.36,12.63,12.63,0,0,1,3.35,1.56l1.32,0.9,1.56,0.54Q119,206.49,119,204a3.86,3.86,0,0,1,2.27-3.35,6.51,6.51,0,0,1,4.79-.12l1.68,0.6,2.09-.54,0.66-2.21-0.12-1.08a4.85,4.85,0,0,1,.84-3.53,4.58,4.58,0,0,1,3.47-1.74h1.2l1.2-.12,2-1.2,0.18-2.15-1-1.44q-2.51-4.43,2.51-6.82l1.44-1.92-0.84-2.51-1.26-2.27-0.66-2.63v-2l0.84-1.62,0.66-2.09-1.14-1.86-1-.48-0.72-.6a29.42,29.42,0,0,1-2-2.81q-1-1.5-1.92-3.17l-0.18-.6,0.18-.6-0.36-1.74-1.68-1.14-1.44-.72-1-.84-2.09-1.8L125.31,147l-0.66-.78-0.54-.9-1.32-1.44-1.92-.72h-1.26l-0.66-.24a45.74,45.74,0,0,0-6-1.56l-1.2-.48-1.2-.48-1.8-.6-1.68.36q0,0.48-1.8.48l-2,.06-2-.06-2.51-.18-2.15-.3-1.44-.06-1.08,1a2.79,2.79,0,0,1-2.15,1.44l-1.26.36-1.38.36-2.21.48-1.74.12a2.71,2.71,0,0,0-2.51.66q-0.84.9-.48,3.29a3,3,0,0,1-1.08,3,12.62,12.62,0,0,1-6,1.92l-1.8,1.2a2.9,2.9,0,0,0,.24,2.51,33.62,33.62,0,0,1,1.08,3.35ZM177.68,91.09l-1,1.68a12.71,12.71,0,0,0-.36,4.31,50.11,50.11,0,0,0,1.2,9.1,32,32,0,0,0,3.59,8.62A20.14,20.14,0,0,0,184,119.1l1.86,0.18,1.86-.54a9.67,9.67,0,0,0,2.15-6.11q0-2-.12-3.71t-0.24-2.51V104l0.12-2.33,0.84-1.44,0.72,0.54,0.48,0.66,0.54,2.87L192.7,107q0.24,1.56.36,4t0.12,5.15q0,5.15-4.31,9.58a6.94,6.94,0,0,1-4.55,2.27,7.62,7.62,0,0,1-5.75-1.92,20.94,20.94,0,0,1-3.53-4,44.84,44.84,0,0,0-2.81-3.77,38,38,0,0,1-3.77-9.88A33.92,33.92,0,0,1,168,97.79a14.21,14.21,0,0,1,.78-3.23,18.2,18.2,0,0,1,2-4,8.22,8.22,0,0,1,3.35-3.17,7.12,7.12,0,0,1,4.07-.78,8.37,8.37,0,0,1,4.49,2.69A9.7,9.7,0,0,1,185,94.2l0.06,1.26-0.06,1-0.42,1.14-1.38,1q-1.56.72-3.23-1a3.66,3.66,0,0,1-1.74-3.17A4.2,4.2,0,0,1,180,91,4.27,4.27,0,0,0,177.68,91.09ZM154.16,77.8a2.48,2.48,0,0,0-2.15.36,5.3,5.3,0,0,0-1,2.63L150.21,82a21.32,21.32,0,0,1-5.09,1.92,27.62,27.62,0,0,1-4.61.72l-2.21.9-0.18,2.09,0.36,1.14,0.36,1.14-0.24,2.51-1.8,1.8a21,21,0,0,1-6,1.68l-1.32,1.26a3.81,3.81,0,0,0,.36,2.69l0.42,1.08,0.42,1.08a6.37,6.37,0,0,1,1.26,3.53q0.06,1.86-1.14,2.21l-0.78,1.2-1,1a3.57,3.57,0,0,0-1.92,2.69,3,3,0,0,0,1.32,2.93l1.56,1.56,2,2,1.32,2.45-0.06,2.75L131.41,127a3.34,3.34,0,0,0-.6,2.75,6,6,0,0,0,3.71,1.8l1.14,0.3,1.14,0.3a8.06,8.06,0,0,1,4.37,3.59,7.11,7.11,0,0,1,.9,5.87,4,4,0,0,0,.84,3.11l2.51,1.44a11.15,11.15,0,0,0,2.87.12,7,7,0,0,1,3.35.24,9.42,9.42,0,0,1,3.89,2.69,11.53,11.53,0,0,1,2.33,4.13,5.1,5.1,0,0,0,2.69,3,3,3,0,0,0,3.65-.6,7.67,7.67,0,0,1,6-.9,10.41,10.41,0,0,1,2.87,1.32l2.09,2.09,0.66,1.14,0.78,1a3.7,3.7,0,0,0,3.23,1.26,3.51,3.51,0,0,0,2.87-1.86l1.08-1.74,1.44-1.14a5.3,5.3,0,0,1,3.47-.66,10.52,10.52,0,0,1,3.35,1.26l1.38,1.14,1.5,0.9a2.46,2.46,0,0,0,2.87.06,3.88,3.88,0,0,0,1.56-2.93l0.3-1.8,0.66-1.44a4.51,4.51,0,0,1,2.69-1.74,8.64,8.64,0,0,1,3.65-.06L208,152l1.38,0.3,2.45-.66,0.78-2.33q-0.48-2.63-.72-5.27,0-3.23,3.71-3.47l1.14-.12h1.14a1.85,1.85,0,0,0,2-1.8v-1.44l-0.24-1.32a22.9,22.9,0,0,1-1.32-4.37,17.53,17.53,0,0,1-.24-4.13l1.08-1.92a2.84,2.84,0,0,0,1.92-2,5.67,5.67,0,0,0-.72-3.29l-0.72-.84-0.6-1.08q-1-3-1.74-5.81a27.65,27.65,0,0,0-1.86-5q-0.72-1.55-1.68-3.41t-1.92-3.65a14.78,14.78,0,0,0-2.09-2.69l-2.09-1.86a44.43,44.43,0,0,0-4.43-5.33,23.7,23.7,0,0,0-5.39-4.13A38.87,38.87,0,0,1,193.24,84a35.41,35.41,0,0,0-4.73-2.45,57.82,57.82,0,0,0-13.77-4.43,19.64,19.64,0,0,0-5.57-.42q-2.93.18-5.69,0.42-1.92.12-4.07,0.3T155,77.8h-0.84ZM82.21,46.74l-2.27-.18q-1.56.48-3,1l-2.39,1.08A64.76,64.76,0,0,0,64.44,55q-4.73,3.65-9.52,7.6a68.23,68.23,0,0,0-6.22,6,64.48,64.48,0,0,0-5.39,6.76,11,11,0,0,0-1.44,3.35q-0.72,2.51,1.68,3.11a10.23,10.23,0,0,0,3.65.06,17.25,17.25,0,0,0,3.29-.9,31.11,31.11,0,0,0,5.81-2.81q2.81-1.73,5.33-3.41,2.39-1.32,5-2.93t5.33-3.29l1.44-1.08L75,66.67l0.6-.06,0.72,0.3-0.18.84-0.3.72A47.82,47.82,0,0,1,72,72.18a27.29,27.29,0,0,1-4.61,3.11q-4,3.11-8.26,6a40.75,40.75,0,0,1-8.86,4.61,48.64,48.64,0,0,1-6.7,2.63,30.4,30.4,0,0,1-6.94,1.32,11.5,11.5,0,0,1-5.75-1q-5.15-2-4.19-6.94a20.26,20.26,0,0,1,1.8-5.45,20.85,20.85,0,0,1,2.87-4.25A81.24,81.24,0,0,1,49.17,53.8,95,95,0,0,1,72,41.41,20.94,20.94,0,0,1,76.95,40a18.13,18.13,0,0,1,5.87,0l1.56,0.36A6.17,6.17,0,0,1,88,43.39q1,2.1-.3,5.33a16.85,16.85,0,0,1-3.35,5.15,25,25,0,0,1-4.07,3.23,17.48,17.48,0,0,1-5.15,2.27l-1.32.24a2.87,2.87,0,0,1-2-4.55q2.87-6,10.89-6.7h1Zm-8-27.53-1.92.18a45.4,45.4,0,0,0-4.55.72q-2.28.48-4.19,1.08-5.63,1.56-11,3.23a33.62,33.62,0,0,0-10.12,5.27q-2.75,2-5.63,3.83a53.17,53.17,0,0,0-5.51,4A39.79,39.79,0,0,0,27.57,41q-1.74,1.86-3.41,3.89-3.59,4.31-6.88,8.5A33.53,33.53,0,0,0,12.06,63L8.35,73A57.79,57.79,0,0,0,5.6,83.55a1.76,1.76,0,0,0,.72,2.27l0.36,0.36L6.8,86.66Q6.68,91.21,6.62,95a35.23,35.23,0,0,1-1.26,8.32,3.24,3.24,0,0,0,.3,3.11,3.61,3.61,0,0,0,2.93,1.08h1.56a5,5,0,0,1,2.51.42q0.6,0.42.84,2.45l0.06,0.6,0.06,0.6v5q0,2.4-.12,4A4.82,4.82,0,0,0,14.76,124a3.22,3.22,0,0,0,3.29.84l1.68-.54,1.8-.54a5.76,5.76,0,0,1,5.51.84A7.45,7.45,0,0,1,29.66,130l0.18,0.78,0.06,1a4.55,4.55,0,0,0,2,4,3.68,3.68,0,0,0,4.13-.3l1.62-1.14,1.5-1.14a8.72,8.72,0,0,1,6.34-2,8.28,8.28,0,0,1,3.53,1.2,6.87,6.87,0,0,1,2.45,3.11l1.08,2.39,1.32,1.44a11.3,11.3,0,0,0,3.29,0,4.32,4.32,0,0,0,2.81-1.8l1.26-1.92,1.26-1.92a10.71,10.71,0,0,1,2.81-2.15A13.35,13.35,0,0,1,69,130.17a12.75,12.75,0,0,1,4.07-.18,7.05,7.05,0,0,1,3.47,1.32l1.44,1,1.56,0.24q4.19-.36,5.63-2.75l0.3-1.26,0.3-1.26A11.76,11.76,0,0,1,89,121.68a8.88,8.88,0,0,1,5.69-2.33,4.75,4.75,0,0,1,2.69-.66,27.14,27.14,0,0,1,3.53.42,5.29,5.29,0,0,0,5-1.92,8.16,8.16,0,0,0,1.38-5.63l-0.12-2.45,0.24-1.62a13.46,13.46,0,0,1,3.59-5.87,14.84,14.84,0,0,1,6.34-3.47,4.08,4.08,0,0,0,1.92-1q3.47-.6,4.55-2.93t-1-5.33A6.57,6.57,0,0,1,121.06,85a8.46,8.46,0,0,1,1.26-4.25,11,11,0,0,1,5.39-5.51,5.72,5.72,0,0,0,3.89-5.39,4.92,4.92,0,0,0-2-3.83l-0.36-.24q-5.27-2.15-4.19-7.18a10.68,10.68,0,0,1,2.87-5.27l1.8-2.39a4.77,4.77,0,0,0,.12-3.17,3.27,3.27,0,0,0-2.15-2.33q-2.15-.48-4.31-1.08t-4.31-1.32L119,42l-0.66-2.63,0.54-2.75,0.12-1.2v-1.2a7.3,7.3,0,0,0-.24-3.29q-0.48-1.38-2.63-1.38a33.87,33.87,0,0,1-6.64-.84A33.55,33.55,0,0,1,104.12,27a2.78,2.78,0,0,1-2.27-2.75,3.21,3.21,0,0,0-.84-2.81,5.7,5.7,0,0,0-3.23-.9l-1,.06-0.66.06-0.6.06-1-.06q-5-.24-9.16-0.66t-9.16-.78Z"
          transform="translate(-5.12 -19.21)"/>
</svg>