<svg xmlns="http://www.w3.org/2000/svg" viewBox="0 0 217.5 215.92">
    <path class="cls-1"
          d="M70.79,55.55a16.13,16.13,0,0,1,2.34-5.11,31.1,31.1,0,0,1,4.61-5.39,42.51,42.51,0,0,1,6.38-5,36.3,36.3,0,0,1,7-3.55A26.11,26.11,0,0,1,97.52,35a12.21,12.21,0,0,1,5,.43,4.76,4.76,0,0,1,3,2.55,6.43,6.43,0,0,1,.28,4.25,16.2,16.2,0,0,1-2.34,5.11,29.2,29.2,0,0,1-4.61,5.32,45.34,45.34,0,0,1-6.38,4.89,39.66,39.66,0,0,1-7,3.62,24.34,24.34,0,0,1-6.38,1.63,11.32,11.32,0,0,1-5-.5,5,5,0,0,1-3-2.62A6,6,0,0,1,70.79,55.55Zm54.89-20.14a12.2,12.2,0,0,1,5-.43A25.16,25.16,0,0,1,137,36.55,37.29,37.29,0,0,1,144,40.09a46,46,0,0,1,6.45,5,29.94,29.94,0,0,1,4.68,5.39,16.23,16.23,0,0,1,2.34,5.11,5.45,5.45,0,0,1-.43,4.11,5,5,0,0,1-3,2.62,11.33,11.33,0,0,1-5,.5,23.41,23.41,0,0,1-6.31-1.63,40.72,40.72,0,0,1-6.95-3.62,38.89,38.89,0,0,1-6.45-4.89,30.46,30.46,0,0,1-4.54-5.32,16.1,16.1,0,0,1-2.34-5.11,6.42,6.42,0,0,1,.28-4.25A4.76,4.76,0,0,1,125.67,35.41Zm95.45,84.67a5,5,0,0,0-1.28-2.62,25.53,25.53,0,0,0-2.48-2.55q-1.35-1.2-2.77-2.34a15.07,15.07,0,0,1-2.13-2q-1.28-1.56-2.34-2.91t-3.19-3.76a54.47,54.47,0,0,0-5.25-5.39,41.65,41.65,0,0,0-8.23-5.67q-2.55-1.42-6.6-3.26T178.5,85.9q-4.33-1.84-8.16-3.33t-5.67-2.06a23.51,23.51,0,0,1-6.95-3,21.66,21.66,0,0,1-5.25-5.18l1.13,0.14h1.13q4,0,6-2.34a11.11,11.11,0,0,0,2.48-5.67,20.82,20.82,0,0,0-.21-7,21.08,21.08,0,0,0-2.13-6.24,43.3,43.3,0,0,0-9.29-11.56,46.34,46.34,0,0,0-12-7.59q-2.13-1-4.33-2a11.08,11.08,0,0,1-3.55-2.41,5.11,5.11,0,0,1-1.42-3.47q-0.07-2.06,2.2-5.18,0.57-1,1.77-2.7a22.32,22.32,0,0,0,2.06-3.55,7.52,7.52,0,0,0,.78-3.48,3.13,3.13,0,0,0-1.91-2.62q-2.84-1.42-4.75-.43A9.27,9.27,0,0,0,127,9.46a29.29,29.29,0,0,0-2.69,5.32q-1.21,3.05-2.62,5.81a21.08,21.08,0,0,1-3.26,4.75,5.86,5.86,0,0,1-8.79,0,19.37,19.37,0,0,1-3.19-4.75q-1.35-2.76-2.62-5.81a32.76,32.76,0,0,0-2.77-5.32,9.27,9.27,0,0,0-3.4-3.26q-1.91-1-4.75.43A3.13,3.13,0,0,0,91,9.25a7.5,7.5,0,0,0,.78,3.48,22.17,22.17,0,0,0,2.06,3.55L95.75,19q2.13,3.12,2.13,5.18a4.86,4.86,0,0,1-1.35,3.47A11,11,0,0,1,92.91,30q-2.27,1-4.4,2a46.27,46.27,0,0,0-12,7.59,41.06,41.06,0,0,0-9.15,11.56,22.33,22.33,0,0,0-2.2,6.24,19.68,19.68,0,0,0-.28,7,11.08,11.08,0,0,0,2.48,5.67q2,2.34,6,2.34h0.28a21.74,21.74,0,0,1-5.11,5.11,22.69,22.69,0,0,1-6.81,3q-2,.57-5.81,2.06T47.74,85.9q-4.33,1.84-8.37,3.69t-6.59,3.26a41.53,41.53,0,0,0-8.23,5.67,54,54,0,0,0-5.25,5.39q-2.13,2.41-3.12,3.76a37.33,37.33,0,0,1-2.41,2.91,15.29,15.29,0,0,1-2.13,2q-1.42,1.14-2.77,2.34a25.1,25.1,0,0,0-2.48,2.55,5,5,0,0,0-1.28,2.62v0.43A2.89,2.89,0,0,0,6,122.42a5,5,0,0,0,1.7,1,9.78,9.78,0,0,0,2.13.5,6.14,6.14,0,0,1,2,.57,29.18,29.18,0,0,0,7.94,1.7,48.84,48.84,0,0,0,8.23.14,21.16,21.16,0,0,0,3.4-.57,23.76,23.76,0,0,0,3.4-1.13,10.15,10.15,0,0,1,3.19-.57q1.49,0,3.33-.14a9.42,9.42,0,0,0,3.12-.78,27.37,27.37,0,0,0,2.84-1.49A48.12,48.12,0,0,1,53.55,119a23.92,23.92,0,0,1,6.6-1.21,27.46,27.46,0,0,1,5.25-.07,5.3,5.3,0,0,0,4.54-1.63,11.87,11.87,0,0,0,2.55-4.47q0.85-2.62,1.7-4.89a69.69,69.69,0,0,0,3.69-12.2,11.32,11.32,0,0,1,2.55-5,12.69,12.69,0,0,0,2.69-5.18q0.71-2.84,1.13-5.6a10.6,10.6,0,0,1,2.41-5.18,17.28,17.28,0,0,1,6.17-5q3.76-1.84,7.45-3.26a27.28,27.28,0,0,1,6.31-1.49,58.68,58.68,0,0,1,6.45-.35,60.67,60.67,0,0,1,6.52.35A27.32,27.32,0,0,1,126,65.34q3.69,1.42,7.45,3.26a17.32,17.32,0,0,1,6.17,5,11.22,11.22,0,0,1,2.48,5.18q0.5,2.77,1.21,5.6a11.32,11.32,0,0,0,2.55,5.18,11.37,11.37,0,0,1,2.55,5,69.49,69.49,0,0,0,3.69,12.2,42.72,42.72,0,0,1,1.77,4.89,11.13,11.13,0,0,0,2.48,4.47,5.29,5.29,0,0,0,4.54,1.63,27.47,27.47,0,0,1,5.25.07,24.3,24.3,0,0,1,6.74,1.21,41.71,41.71,0,0,1,6.17,2.62q1.56,0.85,2.91,1.49a9,9,0,0,0,3.19.78q1.84,0.14,3.26.14a11.32,11.32,0,0,1,3.26.57,18.86,18.86,0,0,0,3.26,1.13,21.16,21.16,0,0,0,3.4.57,48.84,48.84,0,0,0,8.23-.14,29.2,29.2,0,0,0,7.94-1.7,6.12,6.12,0,0,1,2-.57,11.21,11.21,0,0,0,2.2-.5,5,5,0,0,0,1.77-1,2.45,2.45,0,0,0,.71-1.92v-0.43Zm-56.73,41.27a4.84,4.84,0,0,1,.92-1.42l1.28-1.42a2.28,2.28,0,0,0,.64-1.56,3.36,3.36,0,0,0-.43-1.63,10.45,10.45,0,0,0-1-1.49,16.53,16.53,0,0,1-1.06-1.49,4.3,4.3,0,0,1-.64-1.63,1.43,1.43,0,0,1,.64-1.28q0.64-.43,1.21-0.85l0.57-.92q0-.5-1.42-1.49-1.7-1.28-.57-1.56a1.54,1.54,0,0,1,1.28.28q0.57,0.43.71-.43t-0.07-1l-0.92-.28-0.85-.57v-0.85a4.09,4.09,0,0,1,.92-0.92c0.24-.14.26-0.45,0.07-0.92l-0.5-.92a3.11,3.11,0,0,1-.64-1.06,8.45,8.45,0,0,1-.43-1.35q-0.14-.64.28-0.64l0.57-.5c0.09-.24-0.1-0.5-0.57-0.78a4,4,0,0,0-.85-0.28l-0.43-.57a3.1,3.1,0,0,1-.43-1.13c-0.1-.47,0-0.71.14-0.71s0.43-.07.71-0.5,0.09-.87-0.57-1.35a12,12,0,0,0-1.13-.78q-1-.64-2.2-1.28t-2.2-1.06q-1-.43-1-0.14a4.92,4.92,0,0,1,.21-1.42,4.24,4.24,0,0,1,.78-1.42,23,23,0,0,1-3.4-.92,7.36,7.36,0,0,1-3.26-2.34,15.42,15.42,0,0,1-2.48-4q-0.92-2.2-1.63-4.18a8.35,8.35,0,0,0-.35-1.28l-0.5-1q-1.14-3.26-2-6.52t-1.56-6.52a5.21,5.21,0,0,0-.64-1.56q-0.5-.85-1.21-2a19,19,0,0,1-1.84-2.91A18.22,18.22,0,0,1,137.16,87q-0.14-.85-0.21-1.7a5.47,5.47,0,0,0-.35-1.56q-0.29-1.7-.64-3.19a5.82,5.82,0,0,0-1.21-2.48,12.83,12.83,0,0,0-4.75-4,49.92,49.92,0,0,0-6.31-2.7,25.3,25.3,0,0,0-5.81-1h-9.5a25.28,25.28,0,0,0-5.81,1,49.69,49.69,0,0,0-6.31,2.7,12.81,12.81,0,0,0-4.75,4,5.8,5.8,0,0,0-1.21,2.48q-0.36,1.49-.64,3.19a13.6,13.6,0,0,0-.21,1.56,7.38,7.38,0,0,1-.35,1.7,18.31,18.31,0,0,1-1.42,3.76A31.44,31.44,0,0,1,86,93.7q-0.71,1.14-1.21,2A11.7,11.7,0,0,0,84,97.25q-0.71,3.4-1.56,6.59t-2,6.45l-0.5,1a8.13,8.13,0,0,0-.35,1.28l-1.49,4.18a10.84,10.84,0,0,1-2.62,4,8.05,8.05,0,0,1-4,2.7,15.81,15.81,0,0,1-3.9.57,3.23,3.23,0,0,1,.85,2.84q0-.28-0.92.14t-2.13,1.06q-1.21.64-2.2,1.28a11.47,11.47,0,0,0-1.13.78q-1,.71-0.64,1.35T62,132c0.19,0,.24.24,0.14,0.71a3.18,3.18,0,0,1-.43,1.13l-0.43.57-0.71.28a0.92,0.92,0,0,0-.64.78l0.64,0.5q0.43,0,.21.64T60.29,138a3.17,3.17,0,0,1-.64,1.06l-0.64.92a0.75,0.75,0,0,0,.28.92,2.34,2.34,0,0,1,.85.92l0.14,0.85-0.85.57-1,.28c-0.28.09-.33,0.43-0.14,1s0.47,0.71.85,0.43l1.13-.28q1.13,0.29-.43,1.56-1.42,1-1.42,1.49L59,148.59c0.38,0.28.78,0.57,1.21,0.85a1.43,1.43,0,0,1,.64,1.28,4.36,4.36,0,0,1-.64,1.63,17.29,17.29,0,0,1-1.06,1.49,10.29,10.29,0,0,0-1,1.49,3.36,3.36,0,0,0-.43,1.63,2.28,2.28,0,0,0,.64,1.56q0.64,0.71,1.21,1.42a8.2,8.2,0,0,1,.92,1.42,1.77,1.77,0,0,1-.21,1.7,6.67,6.67,0,0,1-1.28,1.7,4.21,4.21,0,0,0-1.13,2q-0.43,1.42.28,1.06a2,2,0,0,0,1-1.06,3.29,3.29,0,0,1,1.49-1.21,10.14,10.14,0,0,1,1.63-.64q0.71-.14.85,1.21a3.35,3.35,0,0,1-.28,2.06q-0.71.71-1.13,1.21a0.88,0.88,0,0,0,.14,1.21q0.43,0.71,1.06.07a11.38,11.38,0,0,1,1.21-1.06q0.28-.28,1.13.92a17.1,17.1,0,0,1,1.56,2.77,5.29,5.29,0,0,1,.57,2.91,16,16,0,0,1-.64,3.12,22.64,22.64,0,0,1-1.21,3.12,20.36,20.36,0,0,0-1.13,2.91q-1.14,3.4-2.48,6.95t-2.48,7.09A18,18,0,0,0,58.23,204a17.52,17.52,0,0,0-.07,3.48,9.37,9.37,0,0,0,.43,2.2,1,1,0,0,0,.57.78,2.1,2.1,0,0,0,2.2-1.63,23.85,23.85,0,0,0,.78-4q0.28-2.41.85-5.18a11.55,11.55,0,0,1,2.41-5,8.5,8.5,0,0,0,1.49-2.06,14.67,14.67,0,0,1,1.42-2.2,5.58,5.58,0,0,1,1.91-1.56,4.06,4.06,0,0,1,2.84-.14q1.28,0.29,1.06,1.28a8.75,8.75,0,0,1-1.35,2.69A8.9,8.9,0,0,0,71.71,195a2.44,2.44,0,0,0,.5,2.34A3.84,3.84,0,0,0,74,196.1a9.33,9.33,0,0,1,1.49-1.56,0.78,0.78,0,0,1,1.28-.07,5.71,5.71,0,0,1,.85,2.77,6.9,6.9,0,0,1-.21,2.48Q77,201.21,76.53,203t-0.92,3.62a14.7,14.7,0,0,0-.43,3.26q0,1.56.07,3.4t0.21,3.4a22,22,0,0,0,.35,2.55,1.12,1.12,0,0,0,.5,1l0.35-.21,0.07-.43c0-.24,0-0.59-0.07-1.06a9,9,0,0,1,.21-2.27,11.93,11.93,0,0,1,1-3.4q0.85-2,1.84-3.83t1.84-3.19q0.85-1.35,1.28-1.35a0.74,0.74,0,0,1,1,.64,4.67,4.67,0,0,1-.14,1.91,2.82,2.82,0,0,0,0,1.77q0.28,0.78,1.42-.64L86,207.09A0.9,0.9,0,0,1,87,207a9.69,9.69,0,0,1,2.34,1.56q1.56,1.28,4.82,3.83a21.49,21.49,0,0,0,5.67,3.26,29.09,29.09,0,0,0,5.53,1.56,22.59,22.59,0,0,0,4.47.35q1.91-.07,2.48-0.07t2.62,0.07a22.59,22.59,0,0,0,4.47-.35,29.09,29.09,0,0,0,5.53-1.56,23.92,23.92,0,0,0,5.81-3.26q3.12-2.55,4.75-3.83a10.56,10.56,0,0,1,2.41-1.56,0.9,0.9,0,0,1,1.06.07l0.85,1.06q1.13,1.42,1.35.64a4.41,4.41,0,0,0,.07-1.77,5.83,5.83,0,0,1-.21-1.91,0.59,0.59,0,0,1,.78-0.64,3,3,0,0,1,1.42,1.35,27,27,0,0,1,2,3.19,35.34,35.34,0,0,1,1.77,3.83,13.28,13.28,0,0,1,.92,3.4,14.39,14.39,0,0,1,.28,2.27v1.06l0.07,0.43,0.35,0.21a1.87,1.87,0,0,0,.43-1,14.42,14.42,0,0,0,.43-2.55q0.14-1.56.21-3.4t0.07-3.4a14.7,14.7,0,0,0-.43-3.26q-0.43-1.84-.92-3.62t-0.85-3.26a11.07,11.07,0,0,1-.35-2.48,5.11,5.11,0,0,1,.92-2.77,0.71,0.71,0,0,1,1.21.07q0.71,0.71,1.42,1.56a4.31,4.31,0,0,0,1.84,1.28,2.44,2.44,0,0,0,.5-2.34,9,9,0,0,0-1.06-2.48q-2.41-3.54-.43-4a4.42,4.42,0,0,1,3,.14,6.36,6.36,0,0,1,2,1.56,12,12,0,0,1,1.49,2.2,11.8,11.8,0,0,0,1.35,2.06,11.6,11.6,0,0,1,2.41,5q0.57,2.77.92,5.18a38.43,38.43,0,0,0,.78,4,2,2,0,0,0,2.13,1.63q0.57,0,1.06-3t-1.21-8.08q-1.14-3.54-2.48-7.09t-2.48-6.95a20.6,20.6,0,0,0-1.13-2.91,22.15,22.15,0,0,1-1.21-3.12,20.67,20.67,0,0,1-.71-3.12,4.83,4.83,0,0,1,.5-2.91,21.31,21.31,0,0,1,1.49-2.77q0.78-1.2,1.35-.92l1.06,1.06a0.71,0.71,0,0,0,1.21-.07,0.82,0.82,0,0,0,.07-1.21,14.05,14.05,0,0,1-1.06-1.21,2.74,2.74,0,0,1-.43-2.06q0.14-1.35.71-1.21a9.74,9.74,0,0,1,1.84.64,2.49,2.49,0,0,1,1.42,1.21,2.7,2.7,0,0,0,1.13,1.06q0.71,0.36.28-1.06a6.08,6.08,0,0,0-1.21-2,14,14,0,0,1-1.35-1.7A2.19,2.19,0,0,1,164.39,161.35Z"
          transform="translate(-4.37 -5.04)"/>
</svg>