<svg xmlns="http://www.w3.org/2000/svg" viewBox="0 0 161.09 217.4">
    <path class="cls-1"
          d="M170.87,136.69a45.49,45.49,0,0,1-3.71,7.72,28.43,28.43,0,0,1-4.77,6.05q-2.58,2.42-4.84,2.42a25.07,25.07,0,0,1-4.92-.53q-2.65-.53-5.45-1.29A50.47,50.47,0,0,1,136.81,147a62.47,62.47,0,0,1-8.25-4.77,23.21,23.21,0,0,1-6.58-7,9.93,9.93,0,0,1-1.14-5.45,21,21,0,0,1,1.14-6.51q1.66-.76,3.33-1.36a24.4,24.4,0,0,1,2.88-1.06,9.56,9.56,0,0,1,2.72-.45h29.52q3.48,0,5.83.15a8.16,8.16,0,0,1,3.71,1,4.4,4.4,0,0,1,1.89,2.65,19.35,19.35,0,0,1,.53,5.15A21.61,21.61,0,0,1,170.87,136.69Zm-57.82,40H98.36a101.39,101.39,0,0,0,7.34-13.4A93.9,93.9,0,0,1,113,150q3.48,6.51,6.58,13.17A127.47,127.47,0,0,1,125,176.65H113Zm-28.53-27.4a49.09,49.09,0,0,1-5.45,1.82q-2.8.76-5.45,1.29a24.46,24.46,0,0,1-4.77.53q-2.27,0-4.92-2.42a27,27,0,0,1-4.84-6.05,45.17,45.17,0,0,1-3.71-7.72,21.56,21.56,0,0,1-1.51-7.42,11.79,11.79,0,0,1-.76-5.15,3.62,3.62,0,0,1,1.67-2.65,7.69,7.69,0,0,1,3.48-1q2.12-.15,4.54-0.15h32.7a19.79,19.79,0,0,1,4.62.6,8.65,8.65,0,0,1,4.16,2.27,3.46,3.46,0,0,1,.83,2.35,11.09,11.09,0,0,1-.38,3.33,14.55,14.55,0,0,1-1.44,3.48,13,13,0,0,1-2,2.8q-1.06,1.21-2.19,2.72t-2.5,3.18a31.06,31.06,0,0,1-3.1,3.25,15.8,15.8,0,0,1-4,2.65A49,49,0,0,1,84.51,149.25ZM193,52.23a28.18,28.18,0,0,0-4.16-14.68A48.45,48.45,0,0,0,177.68,24.9a78.69,78.69,0,0,0-16-10,116.48,116.48,0,0,0-18.92-7,77.47,77.47,0,0,0-14.83-2.35Q119.85,5,113,5t-14.68.53A77.44,77.44,0,0,0,83.53,7.88q-22.1,5.75-35.12,17.26T33.28,52.23V73a67,67,0,0,0,.38,7.64,20.36,20.36,0,0,0,2.5,7.19l3,5.9,2.5,5.37a35.58,35.58,0,0,1,2.27,6.51,21,21,0,0,1,.61,6.51,8.58,8.58,0,0,1-2.35,5.37,7.91,7.91,0,0,0-2.65,4.31,26.19,26.19,0,0,0-.38,4.47,54.09,54.09,0,0,0,.76,8.93q0.76,4.54,5.15,8.93t5.15,8.78a52.55,52.55,0,0,1,.76,8.93q0,2.27.08,4.92a24.69,24.69,0,0,0,.68,5.15,18,18,0,0,0,1.74,4.54,7.29,7.29,0,0,0,3.41,3.1,34.61,34.61,0,0,1,6.81,5.9,26.13,26.13,0,0,1,3.78,5.83,28.25,28.25,0,0,1,2,5.68q0.6,2.73,1.44,5.37a25.6,25.6,0,0,0,2.27,5.15,14.79,14.79,0,0,0,4.47,4.62Q86.55,221,95.49,221h35.42a21.91,21.91,0,0,0,9.16-2.2,27.71,27.71,0,0,0,12.64-11.73,32.5,32.5,0,0,0,2.35-5.6q0.83-2.73,1.51-5.45a23.88,23.88,0,0,1,5.9-10.75,40.83,40.83,0,0,1,6.89-5.75,7.29,7.29,0,0,0,3.41-3.1,18.07,18.07,0,0,0,1.74-4.54,25,25,0,0,0,.68-5.15q0.07-2.65.08-4.92a52.31,52.31,0,0,1,.76-8.93q0.76-4.39,5.3-8.78a17.14,17.14,0,0,0,5-8.93,54.33,54.33,0,0,0,.76-8.93,48.17,48.17,0,0,0-.45-6.51,6.85,6.85,0,0,0-3.48-5.15,4.57,4.57,0,0,1-2.19-3.94,15.59,15.59,0,0,1,1-5.6A51.58,51.58,0,0,1,184.49,99q1.51-3,2.57-5.3l3-5.9a20.44,20.44,0,0,0,2.5-7.19A67.47,67.47,0,0,0,193,73V52.23Z"
          transform="translate(-32.58 -4.3)"/>
</svg>