<svg xmlns="http://www.w3.org/2000/svg" viewBox="0 0 177.71 217.4">
    <path class="cls-1"
          d="M90.6,64.35a9.35,9.35,0,0,1,1.56,1.49,46.09,46.09,0,0,1,10.3-3.05,62.76,62.76,0,0,1,10.73-.92q1.14,0,2.77.07T118.73,62q2-2,4-3.69,1.56-1.56,3.34-3.2T129,52.2A7,7,0,0,1,130,50.85a7,7,0,0,0,1.07-1.35h0.14q-0.85,1.71-1.78,4T127.83,58q-0.85,2.56-1.7,5.26,2.27,0.71,4.19,1.28t3.91,1.28q3.55-3.55,7.25-7t7.39-7q2.84-2.84,5.61-5.54t5.61-5.54a10.53,10.53,0,0,0,2.34-3.48,6.24,6.24,0,0,0,.21-4,11.16,11.16,0,0,0-3.91-6.82,52,52,0,0,0-7-5l-5.9,6.68q-2.77,3.13-5.61,6.39H139.9L140,34.3l0.14-.28q2.41-5,4.9-9.66t4.62-9.66q1.28-2.27,1-2.91t-3.13-1.92A19.4,19.4,0,0,0,141.18,8a35.67,35.67,0,0,0-4.26-1.14q-2.13-.43-4.26-0.71a49.06,49.06,0,0,0-7.32-.85L118,5a104.86,104.86,0,0,0-10.87.28A61.5,61.5,0,0,0,96.29,7.17q-3.13.71-5.9,1.63a14.64,14.64,0,0,0-5,2.91,1.44,1.44,0,0,0-.57,1.85Q87.19,20.38,89.61,27t4.83,13.28a3.65,3.65,0,0,1,.43,1l-0.57-.43-0.43-.43q-5.54-9.09-11.08-18.75a1.7,1.7,0,0,0-1.7-.28,44.1,44.1,0,0,0-6.68,2.56,22.69,22.69,0,0,0-5.82,4,15.11,15.11,0,0,0-2.06,2.2l-1.78,2.34A5.34,5.34,0,0,0,64,36.36a9.85,9.85,0,0,0,2,3.91Q72,46,77.67,51.56T89,62.71A7.34,7.34,0,0,0,90.6,64.35Zm108,99a136.42,136.42,0,0,0-7.39-21.81A150.53,150.53,0,0,0,179.75,120a132,132,0,0,0-15.06-19.32,98.84,98.84,0,0,0-18-15.13,65.21,65.21,0,0,0-20.39-8.88C126,76.54,125.91,77,126,78s0.4,2.27.78,3.84,0.8,3.25,1.28,5L129.46,92q0.64,2.42,1.07,4.12a15.11,15.11,0,0,1,.43,2q-0.14.29-1-1.28t-2.13-4L125,87.22l-2.91-5.68q-1.35-2.63-2.49-4.4A5.71,5.71,0,0,0,118,75.22c-0.66,0-1.47,0-2.42-.07s-1.75-.07-2.42-0.07a34.73,34.73,0,0,0-5.68.43q-0.43,0-3.05,2.56t-5.68,5.68l-5.61,5.75a18.62,18.62,0,0,1-3,2.77q-0.29,0,1.63-2.56t4.33-5.61q2.41-3.05,4.4-5.61t1.7-2.41a63.17,63.17,0,0,0-20.88,8.52,102.48,102.48,0,0,0-18.54,15A128.35,128.35,0,0,0,47.2,119a145.25,145.25,0,0,0-11.93,21.88,137.14,137.14,0,0,0-7.6,22.23A86,86,0,0,0,25,183.47a23.61,23.61,0,0,0,3.76,13.35,34.23,34.23,0,0,0,9.94,9.73,62,62,0,0,0,14.14,6.75A120.11,120.11,0,0,0,69,217.57q19.32,3.69,44.18,3.41a222.51,222.51,0,0,0,44-3.41,120.28,120.28,0,0,0,16.2-4.26,62.06,62.06,0,0,0,14.14-6.75,34.26,34.26,0,0,0,9.94-9.73,23.63,23.63,0,0,0,3.76-13.35A85.6,85.6,0,0,0,198.65,163.3Z"
          transform="translate(-24.27 -4.3)"/>
</svg>