<svg xmlns="http://www.w3.org/2000/svg" viewBox="0 0 217.3 201.32">
    <path class="cls-1"
          d="M124.62,134.85a29.74,29.74,0,0,0,9.47-6.67A31.11,31.11,0,0,0,140.5,118a35.43,35.43,0,0,0,2.35-13.09,28.06,28.06,0,0,0-2.35-11.44,30.51,30.51,0,0,0-15.88-15.82,29.3,29.3,0,0,0-23,0A30.51,30.51,0,0,0,85.74,93.43a28,28,0,0,0-2.35,11.44A35.4,35.4,0,0,0,85.74,118a31.06,31.06,0,0,0,6.42,10.23,29.7,29.7,0,0,0,9.47,6.67A28.59,28.59,0,0,0,124.62,134.85Zm16.45,74.33a141.15,141.15,0,0,0,26-9.78l-32.4-54a25.86,25.86,0,0,1-9.78,6.1,35,35,0,0,1-11.82,2q-12.33,0-24.27-8.13l-29.73,54a137.14,137.14,0,0,0,26,9.78A108.12,108.12,0,0,0,141.07,209.18Zm-82-196.05A142.11,142.11,0,0,0,18.59,53.66,151.5,151.5,0,0,0,8.81,78.25a92.91,92.91,0,0,0-3.68,26.62H67.25a35.93,35.93,0,0,1,1.84-11.56A47.82,47.82,0,0,1,74,83a54.41,54.41,0,0,1,6.92-8.83,67.18,67.18,0,0,1,7.94-7.05Zm75.6,54a59.17,59.17,0,0,1,9.47,7.05A50.75,50.75,0,0,1,151.87,83a43.64,43.64,0,0,1,5.21,10.29A34.85,34.85,0,0,1,159,104.87h62.13a74.56,74.56,0,0,0-1.21-13.53,82.61,82.61,0,0,0-3.43-12.77,124.89,124.89,0,0,0-5.21-12.39q-3-6.16-6.42-12.52a119.7,119.7,0,0,0-7.75-12.39,101.52,101.52,0,0,0-8.7-10.55,108.22,108.22,0,0,0-9.91-9.21q-5.27-4.32-11.37-8.39Z"
          transform="translate(-4.47 -12.2)"/>
</svg>