<svg xmlns="http://www.w3.org/2000/svg" viewBox="0 0 218 192">
    <path d="M142.93,134.81V116.48h7v18.32h-7Zm66.84-7H191.31V116.48h7l2.19-11.61h-9.16V24.35L184.48,29l-4.65,7-9.16,4.52V81.9h-9.16L166,100.35l-2.32,6.84v4.65h-2.19l-2.45,4.64h4.65v18.32h-6.84v-23H142.93V95.71h4.77V81.9h-4.77V61.26h-6.71V88.87l-2.45,6.84h2.45v16.13h-2.45v4.64h2.45v18.32h-7V121h-9.16v6.84h-9.16V98l-2.32-2.32L104,98H94.8v-23H104l7-4.52H94.8V47.45H97V42.81L99.44,36H87.83V26.81L74.15,17.65V36h-7V68.1l4.52,4.65v45.94l-4.52,4.52v41.42A187.65,187.65,0,0,0,86.54,162q9.93-1.87,20.06-3.81t20.45-3.42a145.1,145.1,0,0,1,20.65-1.48,128.51,128.51,0,0,1,17.55,2.84,180.44,180.44,0,0,1,17.74,5.1q8.84,3,17.36,6.84t16.26,8.06V125.65ZM39.38,174.94q-6.52-.39-13-0.19a87.9,87.9,0,0,0-12.13,1.16,35.07,35.07,0,0,0-9.16,2.65Q12,181.13,18.6,184t13.16,5.87l13,5.94q6.51,3,13.23,5.55,5.29,2.06,9,3.42a67.7,67.7,0,0,0,6.9,2.13,46.14,46.14,0,0,0,6.39,1.1q3.22,0.32,7.48.32a31.19,31.19,0,0,0,6.9-.77q3.42-.77,6.9-1.87t6.9-2.26q3.42-1.16,6.9-2.06,6.84-1.68,13.42-3t13.29-2.13q6.71-.84,13.74-1.29t14.77-.45h29.81a34.28,34.28,0,0,1,4.19.32,41.88,41.88,0,0,0,5.29.32,28.91,28.91,0,0,0,5.68-.58,14.42,14.42,0,0,0,5.48-2.39,127.35,127.35,0,0,0-25.23-14.06,218.93,218.93,0,0,0-25.23-8.77,84.16,84.16,0,0,0-15.48-3.61,96.88,96.88,0,0,0-15.29-.84,105.77,105.77,0,0,0-14.84,1.42q-7.29,1.23-14.13,3-7.74.77-15.16,1.94T81,173.58q-7.35,1.1-14.77,1.81t-15.16.71Q45.89,175.32,39.38,174.94Z"
          transform="translate(-3.85 -16.71)"/>
</svg>